<?xml version="1.0" encoding="UTF-8" standalone="no"?>
<!DOCTYPE svg PUBLIC "-//W3C//DTD SVG 1.1//EN" "http://www.w3.org/Graphics/SVG/1.1/DTD/svg11.dtd">
<svg width="100%" height="100%" viewBox="0 0 161 194" version="1.1" xmlns="http://www.w3.org/2000/svg" xmlns:xlink="http://www.w3.org/1999/xlink" xml:space="preserve" xmlns:serif="http://www.serif.com/" style="fill-rule:evenodd;clip-rule:evenodd;stroke-linejoin:round;stroke-miterlimit:2;">
    <g transform="matrix(1,0,0,1,-144.694,-131.32)">
        <g transform="matrix(1,0,0,1,111.067,1271.45)">
            <g transform="matrix(0.488315,0,0,0.488315,1934.69,-1072.43)">
                <g id="Rectangle_5" transform="matrix(-16.8153,0,0,16.8153,-3546.54,-122.349)">
                    <path d="M19.998,0.247C19.998,0.111 19.888,0 19.752,0L2.248,0C2.111,0 2.001,0.111 2.001,0.247L2.001,21.752C2.001,21.889 2.111,21.999 2.248,21.999L19.752,21.999C19.888,21.999 19.998,21.889 19.998,21.752L19.998,0.247Z" style="fill:rgb(43,49,68);stroke:black;stroke-width:0.12px;stroke-linejoin:miter;stroke-miterlimit:10;"/>
                </g>
                <g transform="matrix(16.8153,0,0,16.8153,74041,3992.08)">
                    <g id="Rectangle_51" serif:id="Rectangle_5" transform="matrix(1,0,0,1,-4635.83,-245.04)">
                        <path d="M19.998,0.247C19.998,0.111 19.888,0 19.752,0L2.248,0C2.111,0 2.001,0.111 2.001,0.247L2.001,21.752C2.001,21.889 2.111,21.999 2.248,21.999L19.752,21.999C19.888,21.999 19.998,21.889 19.998,21.752L19.998,0.247Z" style="fill:white;stroke:rgb(43,49,68);stroke-width:0.12px;stroke-linejoin:miter;stroke-miterlimit:10;"/>
                    </g>
                    <g id="Line_19" transform="matrix(1.24127,0,0,1,-4628.97,-240.007)">
                        <path d="M2.001,0L8.593,0" style="fill:none;fill-rule:nonzero;stroke:rgb(181,183,192);stroke-width:0.11px;stroke-linejoin:miter;stroke-miterlimit:10;"/>
                    </g>
                    <g id="Line_191" serif:id="Line_19" transform="matrix(-1.24127,0,0,1,-4614.07,-241.594)">
                        <path d="M2.001,0L10.004,0" style="fill:none;fill-rule:nonzero;stroke:rgb(181,183,192);stroke-width:0.11px;stroke-linejoin:miter;stroke-miterlimit:10;"/>
                    </g>
                    <g id="Line_192" serif:id="Line_19" transform="matrix(-1.24127,0,0,1,-4620.65,-225.382)">
                        <path d="M2.001,0L8.593,0" style="fill:none;fill-rule:nonzero;stroke:rgb(181,183,192);stroke-width:0.11px;stroke-linejoin:miter;stroke-miterlimit:10;"/>
                    </g>
                    <g id="Line_193" serif:id="Line_19" transform="matrix(1.24127,0,0,1,-4635.55,-226.969)">
                        <path d="M2.001,0L10.004,0" style="fill:none;fill-rule:nonzero;stroke:rgb(181,183,192);stroke-width:0.11px;stroke-linejoin:miter;stroke-miterlimit:10;"/>
                    </g>
                </g>
                <g transform="matrix(1.45138,0,0,1.45138,2928.7,344.734)">
                    <g transform="matrix(4.55249,0,0,4.55249,-4640.38,-253.146)">
                        <path d="M9,6L5,2L1,6" style="fill:none;fill-rule:nonzero;stroke:rgb(43,49,68);stroke-width:0.31px;stroke-linejoin:miter;stroke-miterlimit:10;"/>
                    </g>
                    <g transform="matrix(4.55249,0,0,4.55249,-4640.38,-253.146)">
                        <path d="M15,18L19,22L23,18" style="fill:none;fill-rule:nonzero;stroke:rgb(43,49,68);stroke-width:0.31px;stroke-linejoin:miter;stroke-miterlimit:10;"/>
                    </g>
                    <g transform="matrix(4.55249,0,0,4.55249,-4640.38,-253.146)">
                        <path d="M11,6L15,6C17.194,6 19,7.806 19,10L19,22" style="fill:none;fill-rule:nonzero;stroke:rgb(43,49,68);stroke-width:0.31px;stroke-linejoin:miter;stroke-miterlimit:10;"/>
                    </g>
                    <g transform="matrix(4.55249,0,0,4.55249,-4640.38,-253.146)">
                        <path d="M13,18L9,18C6.806,18 5,16.194 5,14L5,2" style="fill:none;fill-rule:nonzero;stroke:rgb(43,49,68);stroke-width:0.31px;stroke-linejoin:miter;stroke-miterlimit:10;"/>
                    </g>
                </g>
                <g transform="matrix(1,0,0,1,-4716.8,-255.005)">
                    <path d="M938.528,164.815C938.528,153.889 929.657,145.018 918.732,145.018L871.618,145.018C860.692,145.018 851.822,153.889 851.822,164.815L851.822,204.407C851.822,215.333 860.692,224.204 871.618,224.204L918.732,224.204C929.657,224.204 938.528,215.333 938.528,204.407L938.528,164.815Z" style="fill:white;"/>
                    <path d="M938.528,164.815L938.528,204.407C938.528,215.333 929.657,224.204 918.732,224.204L871.618,224.204C860.692,224.204 851.822,215.333 851.822,204.407L851.822,164.815C851.822,153.889 860.692,145.018 871.618,145.018L918.732,145.018C929.657,145.018 938.528,153.889 938.528,164.815ZM936.48,164.815C936.48,155.019 928.527,147.066 918.732,147.066L871.618,147.066C861.822,147.066 853.869,155.019 853.869,164.815L853.869,204.407C853.869,214.203 861.822,222.156 871.618,222.156L918.732,222.156C928.527,222.156 936.48,214.203 936.48,204.407L936.48,164.815Z" style="fill:rgb(43,49,68);"/>
                </g>
                <g transform="matrix(1,-1.11022e-16,1.11022e-16,1,-4029.62,-246.041)">
                    <path d="M215.548,202.721L178.048,165.221L190.548,152.721L215.548,177.721L257.215,136.054L269.715,148.554L215.548,202.721Z" style="fill:rgb(154,230,208);"/>
                    <path d="M215.548,202.721L178.048,165.221L190.548,152.721L215.548,177.721L257.215,136.054L269.715,148.554L215.548,202.721ZM215.548,199.825L266.819,148.554L257.215,138.95L216.996,179.169C216.196,179.969 214.9,179.969 214.1,179.169L190.548,155.617L180.944,165.221L215.548,199.825Z"/>
                </g>
                <g transform="matrix(1,0,0,1,-4529.73,-3.14183)">
                    <path d="M938.528,164.815C938.528,153.889 929.657,145.018 918.732,145.018L871.618,145.018C860.692,145.018 851.822,153.889 851.822,164.815L851.822,204.407C851.822,215.333 860.692,224.204 871.618,224.204L918.732,224.204C929.657,224.204 938.528,215.333 938.528,204.407L938.528,164.815Z" style="fill:white;"/>
                    <path d="M938.528,164.815L938.528,204.407C938.528,215.333 929.657,224.204 918.732,224.204L871.618,224.204C860.692,224.204 851.822,215.333 851.822,204.407L851.822,164.815C851.822,153.889 860.692,145.018 871.618,145.018L918.732,145.018C929.657,145.018 938.528,153.889 938.528,164.815ZM936.48,164.815C936.48,155.019 928.527,147.066 918.732,147.066L871.618,147.066C861.822,147.066 853.869,155.019 853.869,164.815L853.869,204.407C853.869,214.203 861.822,222.156 871.618,222.156L918.732,222.156C928.527,222.156 936.48,214.203 936.48,204.407L936.48,164.815Z"/>
                </g>
                <g transform="matrix(0.704638,0.704638,-0.704638,0.704638,-3686.9,-327.878)">
                    <path d="M389.788,315.506L389.788,285.982L407.343,285.982L407.343,315.506L436.867,315.506L436.867,333.061L407.343,333.061L407.343,362.585L389.788,362.585L389.788,333.061L360.264,333.061L360.264,315.506L389.788,315.506Z" style="fill:rgb(210,211,214);"/>
                    <path d="M389.788,315.506L389.788,285.982L407.343,285.982L407.343,315.506L436.867,315.506L436.867,333.061L407.343,333.061L407.343,362.585L389.788,362.585L389.788,333.061L360.264,333.061L360.264,315.506L389.788,315.506ZM389.788,317.561L362.319,317.561L362.319,331.006L389.788,331.006C390.922,331.006 391.843,331.926 391.843,333.061L391.843,360.53L405.288,360.53L405.288,333.061C405.288,331.926 406.208,331.006 407.343,331.006L434.812,331.006L434.812,317.561L407.343,317.561C406.208,317.561 405.288,316.641 405.288,315.506L405.288,288.037L391.843,288.037L391.843,315.506C391.843,316.641 390.922,317.561 389.788,317.561Z"/>
                </g>
            </g>
        </g>
    </g>
</svg>
