<?xml version="1.0" encoding="UTF-8" standalone="no"?>
<!DOCTYPE svg PUBLIC "-//W3C//DTD SVG 1.1//EN" "http://www.w3.org/Graphics/SVG/1.1/DTD/svg11.dtd">
<svg width="100%" height="100%" viewBox="0 0 156 189" version="1.1" xmlns="http://www.w3.org/2000/svg" xmlns:xlink="http://www.w3.org/1999/xlink" xml:space="preserve" xmlns:serif="http://www.serif.com/" style="fill-rule:evenodd;clip-rule:evenodd;stroke-linecap:round;stroke-linejoin:round;stroke-miterlimit:1.5;">
    <g transform="matrix(1,0,0,1,-322.872,-131.32)">
        <g transform="matrix(1,0,0,1,111.067,1271.45)">
            <g transform="matrix(0.473542,0,0,0.473542,31.0901,-588.754)">
                <g transform="matrix(1,0,0,1,20.2219,0)">
                    <g id="Rectangle_5" transform="matrix(-8.0062,0,0,16.8153,532.123,-1147.76)">
                        <path d="M19.998,0.117C19.998,0.053 19.888,0 19.752,0L2.248,0C2.111,0 2.001,0.053 2.001,0.117L2.001,21.882C2.001,21.947 2.111,21.999 2.248,21.999L19.752,21.999C19.888,21.999 19.998,21.947 19.998,21.882L19.998,0.117Z" style="fill:rgb(43,49,68);stroke:black;stroke-width:0.16px;stroke-linecap:butt;stroke-linejoin:miter;stroke-miterlimit:10;"/>
                    </g>
                    <g transform="matrix(8.0062,0,0,16.8153,360.472,-1153.76)">
                        <path id="Rectangle_51" serif:id="Rectangle_5" d="M19.998,0.117C19.998,0.053 19.888,0 19.752,0L2.248,0C2.111,0 2.001,0.053 2.001,0.117L2.001,21.882C2.001,21.947 2.111,21.999 2.248,21.999L19.752,21.999C19.888,21.999 19.998,21.947 19.998,21.882L19.998,0.117Z" style="fill:white;stroke:black;stroke-width:0.16px;stroke-linecap:butt;stroke-linejoin:miter;stroke-miterlimit:10;"/>
                    </g>
                    <g transform="matrix(0.95411,0,0,1,18.1888,9.37614)">
                        <g transform="matrix(1.37618,0,0,1.37618,-780.552,-1344.05)">
                            <path d="M938.528,164.815C938.528,153.889 929.231,145.018 917.779,145.018L872.57,145.018C861.119,145.018 851.822,153.889 851.822,164.815L851.822,204.407C851.822,215.333 861.119,224.204 872.57,224.204L917.779,224.204C929.231,224.204 938.528,215.333 938.528,204.407L938.528,164.815Z" style="fill:rgb(210,211,214);"/>
                            <path d="M938.528,164.815L938.528,204.407C938.528,215.333 929.231,224.204 917.779,224.204L872.57,224.204C861.119,224.204 851.822,215.333 851.822,204.407L851.822,164.815C851.822,153.889 861.119,145.018 872.57,145.018L917.779,145.018C929.231,145.018 938.528,153.889 938.528,164.815ZM936.92,164.815C936.92,154.736 928.343,146.553 917.779,146.553L872.57,146.553C862.006,146.553 853.43,154.736 853.43,164.815L853.43,204.407C853.43,214.486 862.006,222.669 872.57,222.669L917.779,222.669C928.343,222.669 936.92,214.486 936.92,204.407L936.92,164.815Z"/>
                        </g>
                        <g transform="matrix(1,0,0,-1,-176.568,-893.367)">
                            <path d="M660.905,224.421L594.962,224.421C580.797,224.421 607.341,158.478 611.448,158.478L644.419,158.478C647.411,158.478 675.069,224.421 660.905,224.421Z" style="fill:white;"/>
                            <clipPath id="_clip1">
                                <path d="M660.905,224.421L594.962,224.421C580.797,224.421 607.341,158.478 611.448,158.478L644.419,158.478C647.411,158.478 675.069,224.421 660.905,224.421Z"/>
                            </clipPath>
                            <g clip-path="url(#_clip1)">
                                <g transform="matrix(1.0481,0,0,-1,46.103,387.461)">
                                    <path d="M521.797,184.419L588.093,184.419" style="fill:none;stroke:rgb(43,49,68);stroke-width:2.11px;"/>
                                </g>
                            </g>
                            <path d="M660.905,224.421C675.069,224.421 647.411,158.478 644.419,158.478L611.448,158.478C607.341,158.478 580.797,224.421 594.962,224.421L660.905,224.421ZM612.154,160.59L643.52,160.59C643.86,161.096 644.481,162.046 644.977,162.963C649.729,171.742 659.24,195.22 661.974,210.532C662.664,214.394 662.935,217.703 662.501,220.048C662.264,221.324 661.98,222.31 660.905,222.31L594.962,222.31C593.87,222.31 593.556,221.314 593.296,220.018C592.826,217.675 593.048,214.367 593.686,210.507C596.213,195.219 605.465,171.776 610.516,163.011C611.073,162.046 611.815,161.038 612.154,160.59Z"/>
                        </g>
                    </g>
                    <g transform="matrix(1.17673,0,0,1.17673,-1392.4,-1220.29)">
                        <path d="M1529.3,284.455L1529.12,278.952C1530.56,279.071 1532.05,279.071 1533.49,278.952L1533.31,284.455L1535.88,284.455L1535.76,278.772C1541.44,277.516 1546.05,273.987 1546.05,268.484C1546.05,255.683 1521.46,256.281 1521.46,245.873C1521.46,240.609 1525.65,237.499 1531.63,237.559C1536.06,237.619 1538.93,238.456 1542.7,243.6L1544.97,241.208C1542.46,238.935 1539.29,237.439 1535.76,236.841L1535.88,231.996L1533.31,231.996L1533.49,236.602C1532.05,236.482 1530.62,236.482 1529.18,236.602L1529.3,231.996L1526.73,231.996L1526.91,236.781C1521.82,238.097 1517.76,241.566 1517.76,246.83C1517.76,259.511 1542.34,258.913 1542.34,269.441C1542.34,275.363 1537.08,277.815 1530.62,277.815C1525.11,277.815 1521.28,274.884 1518.59,271.235L1516.02,273.867C1518.35,275.961 1521.58,278.054 1526.85,278.772L1526.73,284.455L1529.3,284.455Z" style="fill:rgb(210,211,214);fill-rule:nonzero;"/>
                        <path d="M1529.3,286.249L1526.73,286.249C1526.25,286.249 1525.78,286.055 1525.44,285.71C1525.11,285.365 1524.92,284.899 1524.93,284.417C1524.93,284.417 1525.02,280.286 1525.02,280.286C1520.21,279.332 1517.12,277.264 1514.82,275.203C1514.46,274.876 1514.24,274.415 1514.23,273.926C1514.21,273.437 1514.39,272.963 1514.74,272.613L1517.31,269.981C1517.68,269.605 1518.19,269.409 1518.72,269.445C1519.24,269.481 1519.72,269.746 1520.04,270.17C1522.41,273.388 1525.76,276.02 1530.62,276.02C1535.96,276.02 1540.55,274.337 1540.55,269.441C1540.55,267.404 1539.25,265.973 1537.47,264.717C1535.24,263.154 1532.28,261.907 1529.31,260.581C1526.09,259.138 1522.88,257.604 1520.46,255.62C1517.73,253.38 1515.96,250.584 1515.96,246.83C1515.96,241.209 1519.85,237.25 1525.06,235.463L1524.93,232.063C1524.92,231.576 1525.1,231.102 1525.43,230.751C1525.77,230.4 1526.24,230.201 1526.73,230.201L1529.3,230.201C1529.78,230.201 1530.25,230.397 1530.59,230.744C1530.92,231.09 1531.11,231.559 1531.09,232.042C1531.09,232.042 1531.02,234.719 1531.02,234.719C1531.22,234.717 1531.42,234.717 1531.62,234.719L1531.51,232.066C1531.5,231.578 1531.67,231.104 1532.01,230.752C1532.35,230.4 1532.82,230.201 1533.31,230.201L1535.88,230.201C1536.36,230.201 1536.83,230.397 1537.16,230.743C1537.5,231.089 1537.68,231.557 1537.67,232.04C1537.67,232.04 1537.59,235.388 1537.59,235.388C1540.85,236.185 1543.78,237.713 1546.17,239.877C1546.53,240.201 1546.75,240.657 1546.77,241.14C1546.78,241.623 1546.61,242.093 1546.27,242.444L1544,244.836C1543.63,245.222 1543.12,245.425 1542.58,245.391C1542.05,245.357 1541.57,245.09 1541.25,244.661C1537.96,240.171 1535.47,239.406 1531.61,239.353C1526.79,239.306 1523.26,241.627 1523.26,245.873C1523.26,247.88 1524.55,249.285 1526.33,250.525C1528.55,252.075 1531.53,253.316 1534.49,254.643C1537.72,256.088 1540.93,257.63 1543.35,259.631C1546.08,261.885 1547.84,264.702 1547.84,268.484C1547.84,274.361 1543.44,278.433 1537.58,280.155L1537.67,284.417C1537.68,284.899 1537.5,285.365 1537.16,285.71C1536.82,286.055 1536.36,286.249 1535.88,286.249L1533.31,286.249C1532.82,286.249 1532.36,286.052 1532.02,285.703C1531.68,285.353 1531.5,284.882 1531.51,284.396C1531.51,284.396 1531.63,280.834 1531.63,280.834C1531.41,280.836 1531.19,280.836 1530.98,280.834L1531.09,284.396C1531.11,284.882 1530.93,285.353 1530.59,285.703C1530.25,286.052 1529.79,286.249 1529.3,286.249ZM1529.3,284.455L1529.12,278.952C1530.56,279.071 1532.05,279.071 1533.49,278.952L1533.31,284.455L1535.88,284.455L1535.76,278.772C1541.44,277.516 1546.05,273.987 1546.05,268.484C1546.05,255.683 1521.46,256.281 1521.46,245.873C1521.46,240.609 1525.65,237.499 1531.63,237.559C1536.06,237.619 1538.93,238.456 1542.7,243.6L1544.97,241.208C1542.46,238.935 1539.29,237.439 1535.76,236.841L1535.88,231.996L1533.31,231.996L1533.49,236.602C1532.05,236.482 1530.62,236.482 1529.18,236.602L1529.3,231.996L1526.73,231.996L1526.91,236.781C1521.82,238.097 1517.76,241.566 1517.76,246.83C1517.76,259.511 1542.34,258.913 1542.34,269.441C1542.34,275.363 1537.08,277.815 1530.62,277.815C1525.11,277.815 1521.28,274.884 1518.59,271.235L1516.02,273.867C1518.35,275.961 1521.58,278.054 1526.85,278.772L1526.73,284.455L1529.3,284.455Z" style="fill:rgb(49,35,35);"/>
                    </g>
                    <g id="Line_19" transform="matrix(8.91506,0,0,16.8153,374.293,-980.283)">
                        <path d="M2.001,0L8.593,0" style="fill:none;fill-rule:nonzero;stroke:rgb(181,183,192);stroke-width:0.16px;stroke-linecap:butt;stroke-linejoin:miter;stroke-miterlimit:10;"/>
                    </g>
                    <g id="Line_191" serif:id="Line_19" transform="matrix(-8.91506,0,0,16.8153,481.32,-1006.96)">
                        <path d="M2.001,0L10.004,0" style="fill:none;fill-rule:nonzero;stroke:rgb(181,183,192);stroke-width:0.16px;stroke-linecap:butt;stroke-linejoin:miter;stroke-miterlimit:10;"/>
                    </g>
                    <g id="Line_192" serif:id="Line_19" transform="matrix(8.91506,0,0,16.8153,421.645,-891.56)">
                        <path d="M2.001,0L8.593,0" style="fill:none;fill-rule:nonzero;stroke:rgb(181,183,192);stroke-width:0.16px;stroke-linecap:butt;stroke-linejoin:miter;stroke-miterlimit:10;"/>
                    </g>
                    <g id="Line_193" serif:id="Line_19" transform="matrix(-8.91506,0,0,16.8153,528.672,-949.359)">
                        <path d="M2.001,0L10.004,0" style="fill:none;fill-rule:nonzero;stroke:rgb(181,183,192);stroke-width:0.16px;stroke-linecap:butt;stroke-linejoin:miter;stroke-miterlimit:10;"/>
                    </g>
                    <g transform="matrix(1,0,0,1,16.2577,-10.9614)">
                        <g transform="matrix(1,0,0,1,-447.656,-1017.59)">
                            <path d="M938.528,164.815C938.528,153.889 929.657,145.018 918.732,145.018L871.618,145.018C860.692,145.018 851.822,153.889 851.822,164.815L851.822,204.407C851.822,215.333 860.692,224.204 871.618,224.204L918.732,224.204C929.657,224.204 938.528,215.333 938.528,204.407L938.528,164.815Z" style="fill:white;"/>
                            <path d="M938.528,164.815L938.528,204.407C938.528,215.333 929.657,224.204 918.732,224.204L871.618,224.204C860.692,224.204 851.822,215.333 851.822,204.407L851.822,164.815C851.822,153.889 860.692,145.018 871.618,145.018L918.732,145.018C929.657,145.018 938.528,153.889 938.528,164.815ZM936.416,164.815C936.416,155.054 928.492,147.13 918.732,147.13L871.618,147.13C861.857,147.13 853.933,155.054 853.933,164.815L853.933,204.407C853.933,214.168 861.857,222.092 871.618,222.092L918.732,222.092C928.492,222.092 936.416,214.168 936.416,204.407L936.416,164.815Z"/>
                        </g>
                        <g transform="matrix(1,0,0,1,-173.333,-1276.27)">
                            <path d="M632.802,470.36L595.302,432.86L607.802,420.36L632.802,445.36L674.469,403.693L686.969,416.193L632.802,470.36Z" style="fill:rgb(210,211,214);"/>
                            <path d="M632.802,470.36L595.302,432.86L607.802,420.36L632.802,445.36L674.469,403.693L686.969,416.193L632.802,470.36ZM632.802,467.373L683.983,416.193L674.469,406.68L634.296,446.853C633.471,447.678 632.134,447.678 631.309,446.853L607.802,423.346L598.289,432.86L632.802,467.373Z"/>
                        </g>
                    </g>
                </g>
                <g transform="matrix(1,0,0,1,179.103,0)">
                    <g id="Rectangle_52" serif:id="Rectangle_5" transform="matrix(-8.0062,0,0,16.8153,532.123,-1147.76)">
                        <path d="M19.998,0.117C19.998,0.053 19.888,0 19.752,0L2.248,0C2.111,0 2.001,0.053 2.001,0.117L2.001,21.882C2.001,21.947 2.111,21.999 2.248,21.999L19.752,21.999C19.888,21.999 19.998,21.947 19.998,21.882L19.998,0.117Z" style="fill:rgb(43,49,68);stroke:black;stroke-width:0.16px;stroke-linecap:butt;stroke-linejoin:miter;stroke-miterlimit:10;"/>
                    </g>
                    <g transform="matrix(8.0062,0,0,16.8153,360.472,-1153.76)">
                        <path id="Rectangle_53" serif:id="Rectangle_5" d="M19.998,0.117C19.998,0.053 19.888,0 19.752,0L2.248,0C2.111,0 2.001,0.053 2.001,0.117L2.001,21.882C2.001,21.947 2.111,21.999 2.248,21.999L19.752,21.999C19.888,21.999 19.998,21.947 19.998,21.882L19.998,0.117Z" style="fill:white;stroke:black;stroke-width:0.16px;stroke-linecap:butt;stroke-linejoin:miter;stroke-miterlimit:10;"/>
                    </g>
                    <g transform="matrix(0.95411,0,0,1,18.1888,9.37614)">
                        <g transform="matrix(1.37618,0,0,1.37618,-780.552,-1344.05)">
                            <path d="M938.528,164.815C938.528,153.889 929.231,145.018 917.779,145.018L872.57,145.018C861.119,145.018 851.822,153.889 851.822,164.815L851.822,204.407C851.822,215.333 861.119,224.204 872.57,224.204L917.779,224.204C929.231,224.204 938.528,215.333 938.528,204.407L938.528,164.815Z" style="fill:rgb(210,211,214);"/>
                            <path d="M938.528,164.815L938.528,204.407C938.528,215.333 929.231,224.204 917.779,224.204L872.57,224.204C861.119,224.204 851.822,215.333 851.822,204.407L851.822,164.815C851.822,153.889 861.119,145.018 872.57,145.018L917.779,145.018C929.231,145.018 938.528,153.889 938.528,164.815ZM936.92,164.815C936.92,154.736 928.343,146.553 917.779,146.553L872.57,146.553C862.006,146.553 853.43,154.736 853.43,164.815L853.43,204.407C853.43,214.486 862.006,222.669 872.57,222.669L917.779,222.669C928.343,222.669 936.92,214.486 936.92,204.407L936.92,164.815Z"/>
                        </g>
                        <g transform="matrix(1,-3.18905e-17,3.50319e-17,-1.27293,-176.568,-850.114)">
                            <path d="M657.76,224.421L594.962,224.421C593.405,224.421 607.071,158.478 607.462,158.478L644.419,158.478C645.178,158.478 659.664,224.421 657.76,224.421Z" style="fill:white;"/>
                            <clipPath id="_clip2">
                                <path d="M657.76,224.421L594.962,224.421C593.405,224.421 607.071,158.478 607.462,158.478L644.419,158.478C645.178,158.478 659.664,224.421 657.76,224.421Z"/>
                            </clipPath>
                            <g clip-path="url(#_clip2)">
                                <g transform="matrix(1.03043,-2.58152e-17,2.70568e-17,-0.772347,55.4729,358.675)">
                                    <path d="M521.797,184.419L588.093,184.419" style="fill:none;stroke:rgb(43,49,68);stroke-width:2.15px;"/>
                                </g>
                            </g>
                            <path d="M657.76,224.421C659.664,224.421 645.178,158.478 644.419,158.478L607.462,158.478C607.071,158.478 593.405,224.421 594.962,224.421L657.76,224.421ZM597.175,222.762C597.297,221.581 597.511,219.707 597.824,217.762C600.244,202.71 607.517,167.496 609.267,160.137L642.717,160.137C644.752,167.375 652.517,202.691 654.98,217.765C655.299,219.717 655.5,221.596 655.609,222.762L597.175,222.762Z"/>
                        </g>
                        <g transform="matrix(0.686891,0,0,0.65537,-28.7415,-1214.25)">
                            <path d="M695.537,163.773C697.168,163.773 698.492,165.097 698.492,166.727C698.492,168.358 697.168,169.682 695.537,169.682C693.907,169.682 692.583,168.358 692.583,166.727C692.583,165.097 693.907,163.773 695.537,163.773ZM695.537,166.995C695.685,166.995 695.805,166.875 695.805,166.727C695.805,166.58 695.685,166.46 695.537,166.46C695.39,166.46 695.27,166.58 695.27,166.727C695.27,166.875 695.39,166.995 695.537,166.995Z" style="fill:rgb(43,49,68);"/>
                        </g>
                        <g transform="matrix(0.686891,0,0,0.65537,-33.6178,-1203.08)">
                            <path d="M695.537,163.773C697.168,163.773 698.492,165.097 698.492,166.727C698.492,168.358 697.168,169.682 695.537,169.682C693.907,169.682 692.583,168.358 692.583,166.727C692.583,165.097 693.907,163.773 695.537,163.773ZM695.537,166.995C695.685,166.995 695.805,166.875 695.805,166.727C695.805,166.58 695.685,166.46 695.537,166.46C695.39,166.46 695.27,166.58 695.27,166.727C695.27,166.875 695.39,166.995 695.537,166.995Z" style="fill:rgb(43,49,68);"/>
                        </g>
                        <g transform="matrix(0.976322,0,0,0.931519,-227.797,-1238.57)">
                            <path d="M695.537,163.773C697.168,163.773 698.492,165.097 698.492,166.727C698.492,168.358 697.168,169.682 695.537,169.682C693.907,169.682 692.583,168.358 692.583,166.727C692.583,165.097 693.907,163.773 695.537,163.773ZM695.537,166.04C695.158,166.04 694.85,166.348 694.85,166.727C694.85,167.107 695.158,167.415 695.537,167.415C695.917,167.415 696.225,167.107 696.225,166.727C696.225,166.348 695.917,166.04 695.537,166.04Z" style="fill:rgb(43,49,68);"/>
                        </g>
                        <g transform="matrix(0.706052,0,0,0.673652,-46.8883,-1180.74)">
                            <path d="M695.537,163.773C697.168,163.773 698.492,165.097 698.492,166.727C698.492,168.358 697.168,169.682 695.537,169.682C693.907,169.682 692.583,168.358 692.583,166.727C692.583,165.097 693.907,163.773 695.537,163.773ZM695.537,166.907C695.637,166.907 695.717,166.827 695.717,166.727C695.717,166.628 695.637,166.547 695.537,166.547C695.438,166.547 695.357,166.628 695.357,166.727C695.357,166.827 695.438,166.907 695.537,166.907Z" style="fill:rgb(43,49,68);"/>
                        </g>
                        <g transform="matrix(0.706052,0,0,0.673652,-39.8143,-1168.73)">
                            <path d="M695.537,163.773C697.168,163.773 698.492,165.097 698.492,166.727C698.492,168.358 697.168,169.682 695.537,169.682C693.907,169.682 692.583,168.358 692.583,166.727C692.583,165.097 693.907,163.773 695.537,163.773ZM695.537,166.907C695.637,166.907 695.717,166.827 695.717,166.727C695.717,166.628 695.637,166.547 695.537,166.547C695.438,166.547 695.357,166.628 695.357,166.727C695.357,166.827 695.438,166.907 695.537,166.907Z" style="fill:rgb(43,49,68);"/>
                        </g>
                    </g>
                    <g transform="matrix(1.17673,0,0,1.17673,-1392.4,-1220.29)">
                        <path d="M1529.3,284.455L1529.12,278.952C1530.56,279.071 1532.05,279.071 1533.49,278.952L1533.31,284.455L1535.88,284.455L1535.76,278.772C1541.44,277.516 1546.05,273.987 1546.05,268.484C1546.05,255.683 1521.46,256.281 1521.46,245.873C1521.46,240.609 1525.65,237.499 1531.63,237.559C1536.06,237.619 1538.93,238.456 1542.7,243.6L1544.97,241.208C1542.46,238.935 1539.29,237.439 1535.76,236.841L1535.88,231.996L1533.31,231.996L1533.49,236.602C1532.05,236.482 1530.62,236.482 1529.18,236.602L1529.3,231.996L1526.73,231.996L1526.91,236.781C1521.82,238.097 1517.76,241.566 1517.76,246.83C1517.76,259.511 1542.34,258.913 1542.34,269.441C1542.34,275.363 1537.08,277.815 1530.62,277.815C1525.11,277.815 1521.28,274.884 1518.59,271.235L1516.02,273.867C1518.35,275.961 1521.58,278.054 1526.85,278.772L1526.73,284.455L1529.3,284.455Z" style="fill:rgb(210,211,214);fill-rule:nonzero;"/>
                        <path d="M1529.3,286.249L1526.73,286.249C1526.25,286.249 1525.78,286.055 1525.44,285.71C1525.11,285.365 1524.92,284.899 1524.93,284.417C1524.93,284.417 1525.02,280.286 1525.02,280.286C1520.21,279.332 1517.12,277.264 1514.82,275.203C1514.46,274.876 1514.24,274.415 1514.23,273.926C1514.21,273.437 1514.39,272.963 1514.74,272.613L1517.31,269.981C1517.68,269.605 1518.19,269.409 1518.72,269.445C1519.24,269.481 1519.72,269.746 1520.04,270.17C1522.41,273.388 1525.76,276.02 1530.62,276.02C1535.96,276.02 1540.55,274.337 1540.55,269.441C1540.55,267.404 1539.25,265.973 1537.47,264.717C1535.24,263.154 1532.28,261.907 1529.31,260.581C1526.09,259.138 1522.88,257.604 1520.46,255.62C1517.73,253.38 1515.96,250.584 1515.96,246.83C1515.96,241.209 1519.85,237.25 1525.06,235.463L1524.93,232.063C1524.92,231.576 1525.1,231.102 1525.43,230.751C1525.77,230.4 1526.24,230.201 1526.73,230.201L1529.3,230.201C1529.78,230.201 1530.25,230.397 1530.59,230.744C1530.92,231.09 1531.11,231.559 1531.09,232.042C1531.09,232.042 1531.02,234.719 1531.02,234.719C1531.22,234.717 1531.42,234.717 1531.62,234.719L1531.51,232.066C1531.5,231.578 1531.67,231.104 1532.01,230.752C1532.35,230.4 1532.82,230.201 1533.31,230.201L1535.88,230.201C1536.36,230.201 1536.83,230.397 1537.16,230.743C1537.5,231.089 1537.68,231.557 1537.67,232.04C1537.67,232.04 1537.59,235.388 1537.59,235.388C1540.85,236.185 1543.78,237.713 1546.17,239.877C1546.53,240.201 1546.75,240.657 1546.77,241.14C1546.78,241.623 1546.61,242.093 1546.27,242.444L1544,244.836C1543.63,245.222 1543.12,245.425 1542.58,245.391C1542.05,245.357 1541.57,245.09 1541.25,244.661C1537.96,240.171 1535.47,239.406 1531.61,239.353C1526.79,239.306 1523.26,241.627 1523.26,245.873C1523.26,247.88 1524.55,249.285 1526.33,250.525C1528.55,252.075 1531.53,253.316 1534.49,254.643C1537.72,256.088 1540.93,257.63 1543.35,259.631C1546.08,261.885 1547.84,264.702 1547.84,268.484C1547.84,274.361 1543.44,278.433 1537.58,280.155L1537.67,284.417C1537.68,284.899 1537.5,285.365 1537.16,285.71C1536.82,286.055 1536.36,286.249 1535.88,286.249L1533.31,286.249C1532.82,286.249 1532.36,286.052 1532.02,285.703C1531.68,285.353 1531.5,284.882 1531.51,284.396C1531.51,284.396 1531.63,280.834 1531.63,280.834C1531.41,280.836 1531.19,280.836 1530.98,280.834L1531.09,284.396C1531.11,284.882 1530.93,285.353 1530.59,285.703C1530.25,286.052 1529.79,286.249 1529.3,286.249ZM1529.3,284.455L1529.12,278.952C1530.56,279.071 1532.05,279.071 1533.49,278.952L1533.31,284.455L1535.88,284.455L1535.76,278.772C1541.44,277.516 1546.05,273.987 1546.05,268.484C1546.05,255.683 1521.46,256.281 1521.46,245.873C1521.46,240.609 1525.65,237.499 1531.63,237.559C1536.06,237.619 1538.93,238.456 1542.7,243.6L1544.97,241.208C1542.46,238.935 1539.29,237.439 1535.76,236.841L1535.88,231.996L1533.31,231.996L1533.49,236.602C1532.05,236.482 1530.62,236.482 1529.18,236.602L1529.3,231.996L1526.73,231.996L1526.91,236.781C1521.82,238.097 1517.76,241.566 1517.76,246.83C1517.76,259.511 1542.34,258.913 1542.34,269.441C1542.34,275.363 1537.08,277.815 1530.62,277.815C1525.11,277.815 1521.28,274.884 1518.59,271.235L1516.02,273.867C1518.35,275.961 1521.58,278.054 1526.85,278.772L1526.73,284.455L1529.3,284.455Z" style="fill:rgb(49,35,35);"/>
                    </g>
                    <g id="Line_194" serif:id="Line_19" transform="matrix(8.91506,0,0,16.8153,374.293,-980.283)">
                        <path d="M2.001,0L8.593,0" style="fill:none;fill-rule:nonzero;stroke:rgb(181,183,192);stroke-width:0.16px;stroke-linecap:butt;stroke-linejoin:miter;stroke-miterlimit:10;"/>
                    </g>
                    <g id="Line_195" serif:id="Line_19" transform="matrix(-8.91506,0,0,16.8153,481.32,-1006.96)">
                        <path d="M2.001,0L10.004,0" style="fill:none;fill-rule:nonzero;stroke:rgb(181,183,192);stroke-width:0.16px;stroke-linecap:butt;stroke-linejoin:miter;stroke-miterlimit:10;"/>
                    </g>
                    <g id="Line_196" serif:id="Line_19" transform="matrix(8.91506,0,0,16.8153,421.645,-891.56)">
                        <path d="M2.001,0L8.593,0" style="fill:none;fill-rule:nonzero;stroke:rgb(181,183,192);stroke-width:0.16px;stroke-linecap:butt;stroke-linejoin:miter;stroke-miterlimit:10;"/>
                    </g>
                    <g id="Line_197" serif:id="Line_19" transform="matrix(-8.91506,0,0,16.8153,528.672,-949.359)">
                        <path d="M2.001,0L10.004,0" style="fill:none;fill-rule:nonzero;stroke:rgb(181,183,192);stroke-width:0.16px;stroke-linecap:butt;stroke-linejoin:miter;stroke-miterlimit:10;"/>
                    </g>
                    <g transform="matrix(1,0,0,1,16.2577,-10.9614)">
                        <g transform="matrix(1,0,0,1,-447.656,-1017.59)">
                            <path d="M938.528,164.815C938.528,153.889 929.657,145.018 918.732,145.018L871.618,145.018C860.692,145.018 851.822,153.889 851.822,164.815L851.822,204.407C851.822,215.333 860.692,224.204 871.618,224.204L918.732,224.204C929.657,224.204 938.528,215.333 938.528,204.407L938.528,164.815Z" style="fill:white;"/>
                            <path d="M938.528,164.815L938.528,204.407C938.528,215.333 929.657,224.204 918.732,224.204L871.618,224.204C860.692,224.204 851.822,215.333 851.822,204.407L851.822,164.815C851.822,153.889 860.692,145.018 871.618,145.018L918.732,145.018C929.657,145.018 938.528,153.889 938.528,164.815ZM936.416,164.815C936.416,155.054 928.492,147.13 918.732,147.13L871.618,147.13C861.857,147.13 853.933,155.054 853.933,164.815L853.933,204.407C853.933,214.168 861.857,222.092 871.618,222.092L918.732,222.092C928.492,222.092 936.416,214.168 936.416,204.407L936.416,164.815Z"/>
                        </g>
                        <g transform="matrix(1,0,0,1,-173.333,-1276.27)">
                            <path d="M632.802,470.36L595.302,432.86L607.802,420.36L632.802,445.36L674.469,403.693L686.969,416.193L632.802,470.36Z" style="fill:rgb(210,211,214);"/>
                            <path d="M632.802,470.36L595.302,432.86L607.802,420.36L632.802,445.36L674.469,403.693L686.969,416.193L632.802,470.36ZM632.802,467.373L683.983,416.193L674.469,406.68L634.296,446.853C633.471,447.678 632.134,447.678 631.309,446.853L607.802,423.346L598.289,432.86L632.802,467.373Z"/>
                        </g>
                    </g>
                </g>
                <g transform="matrix(1,0,0,1,3845.29,-1023.07)">
                    <g transform="matrix(2.57615,2.57615,-2.57615,2.57615,-3532.18,-741.993)">
                        <path d="M203,114L199,118C199,118 197,120 195,120C192.243,120 190,117.757 190,115C190,113 192,111 192,111L196,107L193,104L189,108C189,108 186,111 186,115C186,119.962 190.038,124 195,124C199,124 202,121 202,121L206,117L203,114Z" style="fill:rgb(154,230,208);fill-rule:nonzero;stroke:black;stroke-width:0.58px;stroke-linecap:butt;stroke-miterlimit:2;"/>
                    </g>
                    <g transform="matrix(2.57615,2.57615,-2.57615,2.57615,-3532.18,-741.993)">
                        <path d="M199,104L203,100C203,100 205,98 207,98C209.757,98 212,100.243 212,103C212,105 210,107 210,107L206,111L209,114L213,110C213,110 216,107 216,103C216,98.038 211.962,94 207,94C203,94 200,97 200,97L196,101L199,104Z" style="fill:rgb(154,230,208);fill-rule:nonzero;stroke:black;stroke-width:0.58px;stroke-linecap:butt;stroke-miterlimit:2;"/>
                    </g>
                    <g transform="matrix(2.57615,2.57615,-2.57615,2.57615,-3532.18,-741.993)">
                        <path d="M193,114L206,101L209,104L196,117L193,114Z" style="fill:rgb(154,230,208);fill-rule:nonzero;stroke:black;stroke-width:0.58px;stroke-linecap:butt;stroke-miterlimit:2;"/>
                    </g>
                </g>
            </g>
        </g>
    </g>
</svg>
