<?xml version="1.0" encoding="UTF-8" standalone="no"?>
<!DOCTYPE svg PUBLIC "-//W3C//DTD SVG 1.1//EN" "http://www.w3.org/Graphics/SVG/1.1/DTD/svg11.dtd">
<svg width="100%" height="100%" viewBox="0 0 155 187" version="1.1" xmlns="http://www.w3.org/2000/svg" xmlns:xlink="http://www.w3.org/1999/xlink" xml:space="preserve" xmlns:serif="http://www.serif.com/" style="fill-rule:evenodd;clip-rule:evenodd;stroke-linejoin:round;stroke-miterlimit:2;">
    <g transform="matrix(1,0,0,1,-493.973,-131.692)">
        <g transform="matrix(1,0,0,1,111.067,1271.45)">
            <g transform="matrix(0.468642,0,0,0.468642,7.91054,-594.034)">
                <g transform="matrix(1,0,0,1,4689.17,-1019.56)">
                    <g id="Rectangle_5" transform="matrix(16.8153,0,0,16.8153,-3911.92,-128.349)">
                        <path d="M19.998,0.247C19.998,0.111 19.888,0 19.752,0L7.97,0L2.001,6.308L2.001,21.752C2.001,21.889 2.111,21.999 2.248,21.999L19.752,21.999C19.888,21.999 19.998,21.889 19.998,21.752L19.998,0.247Z" style="stroke:black;stroke-width:0.13px;stroke-linejoin:miter;stroke-miterlimit:10;"/>
                    </g>
                    <g transform="matrix(-0.910936,0.930667,-1.03122,-1.00936,-2881.71,-810.332)">
                        <path d="M910.102,89.198C921.327,89.117 968.154,111.58 968.154,111.58L855.001,113.47C855.001,113.47 891.587,89.333 910.102,89.198Z"/>
                        <path d="M910.102,89.198C921.327,89.117 968.154,111.58 968.154,111.58L855.001,113.47C855.001,113.47 891.587,89.333 910.102,89.198ZM910.115,90.677C904.744,90.716 897.812,92.882 890.723,95.842C878.878,100.788 866.637,107.998 860.325,111.902C860.325,111.902 961.691,110.209 961.692,110.209C953.793,106.543 939.109,99.896 926.965,95.363C919.682,92.645 913.363,90.654 910.115,90.677Z"/>
                    </g>
                </g>
                <g transform="matrix(1,0,0,1,4694.23,-1025.41)">
                    <g id="Rectangle_51" serif:id="Rectangle_5" transform="matrix(16.8153,0,0,16.8153,-3911.92,-128.349)">
                        <path d="M19.998,0.247C19.998,0.111 19.888,0 19.752,0L7.97,0L2.001,6.409L2.001,21.752C2.001,21.889 2.111,21.999 2.248,21.999L19.752,21.999C19.888,21.999 19.998,21.889 19.998,21.752L19.998,0.247Z" style="fill:white;stroke:rgb(43,49,68);stroke-width:0.13px;stroke-linejoin:miter;stroke-miterlimit:10;"/>
                    </g>
                    <g transform="matrix(-0.910936,0.930667,-1.03122,-1.00936,-2881.71,-810.332)">
                        <path d="M910.102,89.198C921.327,89.117 968.665,110.711 968.665,110.711L855.001,113.47C855.001,113.47 891.587,89.333 910.102,89.198Z" style="fill:rgb(43,49,68);"/>
                        <path d="M910.102,89.198C921.327,89.117 968.665,110.711 968.665,110.711L855.001,113.47C855.001,113.47 891.587,89.333 910.102,89.198ZM910.115,90.677C904.744,90.716 897.813,92.882 890.723,95.842C878.922,100.77 866.727,107.945 860.394,111.86C860.394,111.86 962.025,109.393 962.028,109.394C954.011,105.856 939.277,99.516 927.101,95.185C919.744,92.568 913.368,90.654 910.115,90.677Z"/>
                    </g>
                </g>
                <g transform="matrix(1,0,0,1,-69.0551,0)">
                    <g id="printer" transform="matrix(3.62121,0,0,3.62121,759.099,-1607.24)">
                        <path d="M64,225C64,227.2 65.799,229 68,229L116,229C118.2,229 120,227.2 120,225L120,205L64,205L64,225Z" style="fill:rgb(43,49,68);fill-rule:nonzero;stroke:black;stroke-width:0.59px;"/>
                        <path d="M116,195L68,195C65.799,195 64,196.8 64,199L64,205L120,205L120,199C120,196.8 118.2,195 116,195Z" style="fill:rgb(43,49,68);fill-rule:nonzero;stroke:black;stroke-width:0.59px;"/>
                        <path d="M76,215L108,215C110.2,215 112,213.2 112,211L112,195L72,195L72,211C72,213.2 73.799,215 76,215Z" style="fill:rgb(43,49,68);fill-rule:nonzero;stroke:black;stroke-width:0.59px;"/>
                        <path d="M112,223C112,221.9 111.1,221 110,221L74,221C72.9,221 72,221.9 72,223L72,229L112,229L112,223Z" style="fill:rgb(43,49,68);fill-rule:nonzero;stroke:black;stroke-width:0.59px;"/>
                        <rect x="76" y="199" width="32" height="4" style="fill:rgb(43,49,68);fill-rule:nonzero;stroke:black;stroke-width:0.59px;"/>
                        <rect x="80" y="181" width="24" height="20" style="fill:rgb(43,49,68);fill-rule:nonzero;stroke:black;stroke-width:0.59px;"/>
                        <rect x="80" y="199" width="24" height="2" style="fill:rgb(43,49,68);fill-rule:nonzero;stroke:black;stroke-width:0.59px;"/>
                        <path d="M103,212C103,212.552 102.552,213 102,213C101.448,213 101,212.552 101,212C101,211.448 101.448,211 102,211C102.552,211 103,211.448 103,212Z" style="fill:rgb(43,49,68);fill-rule:nonzero;stroke:black;stroke-width:0.59px;"/>
                        <path d="M99,212C99,212.552 98.551,213 98,213C97.448,213 97,212.552 97,212C97,211.448 97.448,211 98,211C98.551,211 99,211.448 99,212Z" style="fill:rgb(43,49,68);fill-rule:nonzero;stroke:black;stroke-width:0.59px;"/>
                        <path d="M107,212C107,212.552 106.552,213 106,213C105.448,213 105,212.552 105,212C105,211.448 105.448,211 106,211C106.552,211 107,211.448 107,212Z" style="fill:rgb(43,49,68);fill-rule:nonzero;stroke:black;stroke-width:0.59px;"/>
                    </g>
                    <g id="printer1" serif:id="printer" transform="matrix(3.62121,0,0,3.62121,763.099,-1612.24)">
                        <path d="M64,225C64,227.2 65.799,229 68,229L116,229C118.2,229 120,227.2 120,225L120,205L64,205L64,225Z" style="fill:rgb(210,211,214);fill-rule:nonzero;stroke:black;stroke-width:0.59px;"/>
                        <path d="M116,195L68,195C65.799,195 64,196.8 64,199L64,205L120,205L120,199C120,196.8 118.2,195 116,195Z" style="fill:rgb(210,211,214);fill-rule:nonzero;stroke:black;stroke-width:0.59px;"/>
                        <path d="M76,215L108,215C110.2,215 112,213.2 112,211L112,195L72,195L72,211C72,213.2 73.799,215 76,215Z" style="fill:rgb(210,211,214);fill-rule:nonzero;stroke:black;stroke-width:0.59px;"/>
                        <path d="M112,223C112,221.9 111.1,221 110,221L74,221C72.9,221 72,221.9 72,223L72,229L112,229L112,223Z" style="fill:rgb(210,211,214);fill-rule:nonzero;stroke:rgb(190,196,214);stroke-width:0.59px;"/>
                        <rect x="80" y="181" width="24" height="20" style="fill:white;fill-rule:nonzero;stroke:black;stroke-width:0.59px;"/>
                        <rect x="76" y="199" width="32" height="4" style="fill:rgb(210,211,214);fill-rule:nonzero;stroke:black;stroke-width:0.59px;"/>
                        <path d="M107,212C107,212.552 106.552,213 106,213C105.448,213 105,212.552 105,212C105,211.448 105.448,211 106,211C106.552,211 107,211.448 107,212Z" style="fill:rgb(154,230,208);fill-rule:nonzero;stroke:black;stroke-width:0.59px;"/>
                    </g>
                </g>
                <g transform="matrix(1.82528,0,0,1.82528,-1895.1,-1477.42)">
                    <path d="M1520.33,278.652L1520.33,258.674L1531.87,258.674C1542.64,258.674 1546.65,253.47 1546.65,247.728C1546.65,241.985 1542.64,236.781 1531.87,236.781L1515.72,236.781C1515.72,237.798 1516.62,237.439 1516.62,239.174L1516.62,278.652L1520.33,278.652ZM1520.33,237.918L1531.03,237.918C1539.41,237.918 1542.7,241.985 1542.7,247.728C1542.7,253.47 1539.41,257.537 1531.03,257.537L1520.33,257.537L1520.33,237.918Z" style="fill:rgb(210,211,214);fill-rule:nonzero;"/>
                    <path d="M1520.33,279.821L1516.62,279.821C1515.97,279.821 1515.45,279.298 1515.45,278.652L1515.45,239.174C1515.45,238.432 1515.14,238.334 1514.98,238.119C1514.74,237.8 1514.55,237.424 1514.55,236.781C1514.55,236.136 1515.08,235.612 1515.72,235.612L1531.87,235.612C1537.62,235.612 1541.55,237.058 1544.06,239.215C1546.68,241.47 1547.82,244.52 1547.82,247.728C1547.82,250.935 1546.68,253.985 1544.06,256.24C1541.55,258.397 1537.62,259.843 1531.87,259.843C1531.87,259.843 1521.5,259.843 1521.5,259.843L1521.5,278.652C1521.5,279.298 1520.97,279.821 1520.33,279.821ZM1520.33,278.652L1520.33,258.674L1531.87,258.674C1542.64,258.674 1546.65,253.47 1546.65,247.728C1546.65,241.985 1542.64,236.781 1531.87,236.781L1515.72,236.781C1515.72,237.798 1516.62,237.439 1516.62,239.174L1516.62,278.652L1520.33,278.652ZM1520.33,237.918L1531.03,237.918C1539.41,237.918 1542.7,241.985 1542.7,247.728C1542.7,253.47 1539.41,257.537 1531.03,257.537L1520.33,257.537L1520.33,237.918ZM1521.5,239.087L1521.5,256.368L1531.03,256.368C1534.84,256.368 1537.51,255.506 1539.21,253.929C1540.85,252.409 1541.53,250.244 1541.53,247.728C1541.53,245.211 1540.85,243.046 1539.21,241.526C1537.51,239.949 1534.84,239.087 1531.03,239.087L1521.5,239.087Z"/>
                    <path d="M1566.74,278.652C1580.86,278.652 1587.92,268.185 1587.92,257.777C1587.92,247.249 1580.86,236.781 1566.74,236.781L1552.87,236.781C1552.87,237.798 1553.76,237.439 1553.76,239.174L1553.76,278.652L1566.74,278.652ZM1557.47,237.918L1565.91,237.918C1577.99,237.918 1584.03,247.787 1584.03,257.657C1584.03,267.586 1577.93,277.516 1565.67,277.516L1557.47,277.516L1557.47,237.918Z" style="fill:rgb(210,211,214);fill-rule:nonzero;"/>
                    <path d="M1566.74,279.821L1553.76,279.821C1553.12,279.821 1552.6,279.298 1552.6,278.652L1552.6,239.174C1552.6,238.432 1552.29,238.334 1552.12,238.119C1551.89,237.8 1551.7,237.424 1551.7,236.781C1551.7,236.136 1552.22,235.612 1552.87,235.612L1566.74,235.612C1581.64,235.612 1589.09,246.665 1589.09,257.777C1589.09,268.763 1581.65,279.821 1566.74,279.821ZM1566.74,278.652C1580.86,278.652 1587.92,268.185 1587.92,257.777C1587.92,247.249 1580.86,236.781 1566.74,236.781L1552.87,236.781C1552.87,237.798 1553.76,237.439 1553.76,239.174L1553.76,278.652L1566.74,278.652ZM1557.47,237.918L1565.91,237.918C1577.99,237.918 1584.03,247.787 1584.03,257.657C1584.03,267.586 1577.93,277.516 1565.67,277.516L1557.47,277.516L1557.47,237.918ZM1558.64,239.087L1558.64,276.347L1565.67,276.347C1577.18,276.347 1582.86,266.98 1582.86,257.657C1582.86,248.396 1577.25,239.087 1565.91,239.087L1558.64,239.087Z"/>
                    <path d="M1598.75,278.652L1598.75,257.597L1616.45,257.597L1616.45,256.461L1598.75,256.461L1598.75,237.918L1620.64,237.918L1620.64,236.781L1594.14,236.781C1594.14,237.798 1595.04,237.439 1595.04,239.174L1595.04,278.652L1598.75,278.652Z" style="fill:rgb(210,211,214);fill-rule:nonzero;"/>
                    <path d="M1598.75,279.821L1595.04,279.821C1594.39,279.821 1593.87,279.298 1593.87,278.652L1593.87,239.174C1593.87,238.432 1593.56,238.334 1593.4,238.119C1593.16,237.8 1592.97,237.424 1592.97,236.781C1592.97,236.136 1593.5,235.612 1594.14,235.612L1620.64,235.612C1621.28,235.612 1621.81,236.136 1621.81,236.781L1621.81,237.918C1621.81,238.563 1621.28,239.087 1620.64,239.087C1620.64,239.087 1599.91,239.087 1599.91,239.087L1599.91,255.292L1616.45,255.292C1617.1,255.292 1617.62,255.815 1617.62,256.461L1617.62,257.597C1617.62,258.243 1617.1,258.766 1616.45,258.766C1616.45,258.766 1599.91,258.766 1599.91,258.766L1599.91,278.652C1599.91,279.298 1599.39,279.821 1598.75,279.821ZM1598.75,278.652L1598.75,257.597L1616.45,257.597L1616.45,256.461L1598.75,256.461L1598.75,237.918L1620.64,237.918L1620.64,236.781L1594.14,236.781C1594.14,237.798 1595.04,237.439 1595.04,239.174L1595.04,278.652L1598.75,278.652Z"/>
                </g>
            </g>
        </g>
    </g>
</svg>
